<svg xmlns="http://www.w3.org/2000/svg" xmlns:xlink="http://www.w3.org/1999/xlink" width="38" zoomAndPan="magnify" viewBox="0 0 28.5 28.5" height="38" preserveAspectRatio="xMidYMid meet" version="1.0"><defs><clipPath id="ebe2269dd3"><path d="M 0 0 L 27.273438 0 L 27.273438 28 L 0 28 Z M 0 0 " clip-rule="nonzero"/></clipPath></defs><g clip-path="url(#ebe2269dd3)"><path fill="#fce8c6" d="M 2.265625 0.386719 C 1.824219 0.59375 1.25 1 0.953125 1.335938 C -0.0625 2.445312 -0.0234375 1.84375 0.015625 14.144531 L 0.0546875 25.066406 L 0.40625 25.730469 C 0.820312 26.511719 1.550781 27.136719 2.460938 27.488281 C 3.085938 27.722656 3.632812 27.734375 13.628906 27.734375 C 20.917969 27.734375 24.289062 27.683594 24.65625 27.589844 C 24.941406 27.511719 25.511719 27.214844 25.929688 26.914062 C 26.527344 26.496094 26.761719 26.222656 27.101562 25.535156 L 27.519531 24.6875 L 27.558594 14.457031 C 27.582031 7.453125 27.542969 3.964844 27.453125 3.382812 C 27.179688 1.78125 26.203125 0.621094 24.746094 0.191406 C 24.265625 0.046875 22.140625 0.0117188 13.605469 0.0117188 L 3.046875 0.0117188 Z M 10.609375 5.398438 C 11.105469 5.894531 11.167969 6.113281 10.832031 6.152344 C 10.117188 6.207031 9.621094 5.90625 9.621094 5.410156 C 9.621094 4.8125 10.011719 4.800781 10.609375 5.398438 Z M 11.519531 6.882812 C 11.753906 7.027344 12.082031 7.742188 12.496094 9.03125 C 12.796875 9.941406 12.902344 10.566406 12.964844 11.699219 L 13.042969 13.15625 L 9.085938 13.128906 L 5.128906 13.089844 L 5.167969 12.636719 C 5.351562 10.527344 6.824219 8.429688 8.8125 7.441406 C 9.804688 6.949219 11.183594 6.660156 11.519531 6.882812 Z M 24.054688 8.535156 C 24.472656 8.742188 24.589844 8.964844 24.589844 9.511719 C 24.589844 10.03125 24.054688 10.421875 23.339844 10.421875 C 22.859375 10.421875 22.742188 10.476562 22.492188 10.839844 C 22.324219 11.074219 21.671875 11.933594 21.050781 12.726562 C 20.425781 13.535156 19.902344 14.25 19.902344 14.328125 C 19.902344 14.71875 19.304688 16.136719 18.847656 16.878906 C 17.859375 18.441406 16.207031 19.636719 14.371094 20.121094 C 13.382812 20.367188 11.457031 20.367188 10.46875 20.121094 C 7.679688 19.402344 5.558594 17.140625 5.15625 14.417969 L 5.078125 13.9375 L 18.042969 13.9375 L 19.746094 11.621094 C 20.683594 10.359375 21.582031 9.171875 21.738281 9.003906 C 22.324219 8.378906 23.351562 8.171875 24.054688 8.535156 Z M 10.375 20.824219 C 11.039062 21.289062 11.351562 22.019531 11.285156 22.984375 C 11.207031 24.335938 10.335938 25.128906 8.96875 25.128906 C 8.214844 25.128906 7.757812 24.933594 7.265625 24.390625 C 6.746094 23.84375 6.628906 23.53125 6.628906 22.761719 C 6.628906 21.902344 7.03125 21.1875 7.746094 20.746094 C 8.421875 20.328125 9.738281 20.355469 10.375 20.824219 Z M 17.261719 20.667969 C 18.925781 21.460938 18.953125 24.023438 17.300781 24.871094 C 16.625 25.207031 15.621094 25.207031 14.957031 24.871094 C 13.316406 24.039062 13.304688 21.5625 14.917969 20.71875 C 15.542969 20.394531 16.636719 20.367188 17.261719 20.667969 Z M 17.261719 20.667969 " fill-opacity="1" fill-rule="nonzero"/></g><path fill="#fce8c6" d="M 8.253906 22.070312 C 7.601562 22.710938 8.058594 23.828125 8.96875 23.828125 C 9.503906 23.828125 10.011719 23.320312 10.011719 22.789062 C 10.011719 22.253906 9.503906 21.746094 8.96875 21.746094 C 8.722656 21.746094 8.449219 21.863281 8.253906 22.070312 Z M 8.253906 22.070312 " fill-opacity="1" fill-rule="nonzero"/><path fill="#fce8c6" d="M 15.414062 22.070312 C 14.761719 22.710938 15.21875 23.828125 16.128906 23.828125 C 16.664062 23.828125 17.171875 23.320312 17.171875 22.789062 C 17.171875 22.253906 16.664062 21.746094 16.128906 21.746094 C 15.882812 21.746094 15.609375 21.863281 15.414062 22.070312 Z M 15.414062 22.070312 " fill-opacity="1" fill-rule="nonzero"/></svg>