<svg xmlns="http://www.w3.org/2000/svg" xmlns:xlink="http://www.w3.org/1999/xlink" width="24" zoomAndPan="magnify" viewBox="0 0 18 17.999999" height="24" preserveAspectRatio="xMidYMid meet" version="1.0"><path fill="#2c4539" d="M 15.199219 1.152344 C 15.144531 1.160156 14.945312 1.242188 14.761719 1.335938 C 14.363281 1.527344 14.0625 1.808594 13.832031 2.195312 C 13.617188 2.5625 13.542969 2.835938 13.539062 3.300781 C 13.535156 3.972656 13.632812 4.1875 14.78125 6.113281 C 15.09375 6.628906 15.40625 7.117188 15.476562 7.199219 C 15.59375 7.320312 15.628906 7.335938 15.742188 7.3125 C 15.816406 7.296875 15.898438 7.265625 15.929688 7.234375 C 16.023438 7.140625 17.386719 4.851562 17.589844 4.445312 C 17.847656 3.925781 17.929688 3.589844 17.902344 3.15625 C 17.835938 2.214844 17.222656 1.460938 16.316406 1.1875 C 16.101562 1.125 15.472656 1.105469 15.199219 1.152344 Z M 16.039062 2.402344 C 16.25 2.457031 16.566406 2.773438 16.632812 2.996094 C 16.765625 3.453125 16.621094 3.898438 16.253906 4.160156 C 16.085938 4.277344 16.007812 4.308594 15.789062 4.320312 C 15.570312 4.335938 15.492188 4.320312 15.308594 4.230469 C 14.71875 3.941406 14.5625 3.175781 14.992188 2.679688 C 15.238281 2.386719 15.625 2.285156 16.039062 2.402344 Z M 16.039062 2.402344 " fill-opacity="1" fill-rule="nonzero"/><path fill="#2c4539" d="M 13.84375 7.355469 C 13.253906 7.425781 13.105469 7.464844 12.976562 7.601562 C 12.835938 7.753906 12.832031 8.097656 12.976562 8.25 C 13.117188 8.398438 13.300781 8.453125 13.519531 8.402344 C 13.617188 8.382812 13.867188 8.347656 14.070312 8.335938 C 14.277344 8.320312 14.503906 8.292969 14.574219 8.265625 C 14.933594 8.160156 14.980469 7.515625 14.636719 7.378906 C 14.4375 7.300781 14.328125 7.296875 13.84375 7.355469 Z M 13.84375 7.355469 " fill-opacity="1" fill-rule="nonzero"/><path fill="#2c4539" d="M 2.957031 7.582031 C 2.589844 7.625 2.308594 7.714844 1.9375 7.90625 C 1.492188 8.132812 1.140625 8.425781 0.855469 8.8125 C 0.398438 9.429688 0.238281 9.878906 0.207031 10.652344 C 0.164062 11.71875 0.398438 12.242188 2.003906 14.648438 C 2.953125 16.070312 3.0625 16.222656 3.167969 16.28125 C 3.320312 16.367188 3.546875 16.34375 3.679688 16.234375 C 3.925781 16.027344 5.890625 13 6.273438 12.242188 C 6.882812 11.027344 6.683594 9.589844 5.757812 8.5625 C 5.492188 8.265625 4.847656 7.855469 4.449219 7.722656 C 3.933594 7.554688 3.480469 7.511719 2.957031 7.582031 Z M 4.03125 9.5 C 4.34375 9.65625 4.5625 9.878906 4.714844 10.203125 C 4.859375 10.515625 4.867188 11.070312 4.730469 11.367188 C 4.597656 11.65625 4.285156 11.96875 4 12.101562 C 3.789062 12.207031 3.703125 12.222656 3.402344 12.222656 C 3.101562 12.222656 3.015625 12.207031 2.796875 12.101562 C 2.488281 11.953125 2.25 11.714844 2.097656 11.40625 C 2 11.203125 1.984375 11.125 1.984375 10.804688 C 1.984375 10.492188 2 10.394531 2.089844 10.203125 C 2.234375 9.898438 2.464844 9.652344 2.71875 9.519531 C 3.03125 9.359375 3.105469 9.34375 3.453125 9.359375 C 3.707031 9.367188 3.816406 9.398438 4.03125 9.5 Z M 4.03125 9.5 " fill-opacity="1" fill-rule="nonzero"/><path fill="#2c4539" d="M 11.050781 8.164062 C 10.492188 8.441406 10.351562 8.574219 10.351562 8.824219 C 10.351562 9.085938 10.609375 9.34375 10.867188 9.34375 C 10.925781 9.34375 11.109375 9.269531 11.269531 9.183594 C 11.429688 9.09375 11.691406 8.96875 11.847656 8.910156 C 12.101562 8.804688 12.132812 8.78125 12.207031 8.617188 C 12.328125 8.347656 12.242188 8.058594 12.011719 7.953125 C 11.792969 7.851562 11.585938 7.898438 11.050781 8.164062 Z M 11.050781 8.164062 " fill-opacity="1" fill-rule="nonzero"/><path fill="#2c4539" d="M 9.539062 9.648438 C 9.367188 9.792969 9.308594 9.984375 9.332031 10.347656 C 9.339844 10.585938 9.371094 10.699219 9.484375 10.914062 C 9.664062 11.277344 9.800781 11.402344 10.039062 11.429688 C 10.277344 11.457031 10.449219 11.386719 10.554688 11.214844 C 10.675781 11.015625 10.65625 10.839844 10.492188 10.578125 C 10.371094 10.382812 10.351562 10.324219 10.351562 10.097656 C 10.351562 9.871094 10.332031 9.820312 10.234375 9.710938 C 10.136719 9.597656 10.078125 9.574219 9.894531 9.558594 C 9.695312 9.542969 9.652344 9.554688 9.539062 9.648438 Z M 9.539062 9.648438 " fill-opacity="1" fill-rule="nonzero"/><path fill="#2c4539" d="M 11.203125 11.464844 C 10.988281 11.582031 10.910156 11.863281 11.027344 12.113281 C 11.078125 12.21875 11.179688 12.292969 11.46875 12.445312 C 11.671875 12.554688 11.925781 12.695312 12.027344 12.761719 C 12.347656 12.960938 12.699219 12.898438 12.832031 12.617188 C 12.972656 12.324219 12.875 12.082031 12.53125 11.875 C 11.800781 11.4375 11.457031 11.328125 11.203125 11.464844 Z M 11.203125 11.464844 " fill-opacity="1" fill-rule="nonzero"/><path fill="#2c4539" d="M 13.035156 13.289062 C 12.882812 13.351562 12.789062 13.554688 12.761719 13.863281 C 12.746094 14.070312 12.710938 14.195312 12.628906 14.328125 C 12.5625 14.429688 12.507812 14.582031 12.496094 14.695312 C 12.480469 14.882812 12.488281 14.902344 12.648438 15.0625 C 12.808594 15.226562 12.824219 15.230469 13.027344 15.214844 C 13.179688 15.199219 13.261719 15.164062 13.351562 15.078125 C 13.535156 14.902344 13.714844 14.488281 13.769531 14.121094 C 13.8125 13.832031 13.8125 13.773438 13.746094 13.601562 C 13.703125 13.496094 13.625 13.382812 13.574219 13.34375 C 13.449219 13.265625 13.15625 13.238281 13.035156 13.289062 Z M 13.035156 13.289062 " fill-opacity="1" fill-rule="nonzero"/><path fill="#2c4539" d="M 11.316406 15.265625 C 11.203125 15.308594 10.96875 15.382812 10.800781 15.433594 C 10.449219 15.539062 10.289062 15.671875 10.246094 15.894531 C 10.207031 16.101562 10.324219 16.324219 10.53125 16.429688 L 10.695312 16.515625 L 11.023438 16.425781 C 11.210938 16.382812 11.507812 16.285156 11.699219 16.210938 C 12.09375 16.058594 12.199219 15.9375 12.199219 15.636719 C 12.199219 15.488281 12.175781 15.4375 12.058594 15.320312 C 11.9375 15.199219 11.894531 15.179688 11.722656 15.1875 C 11.613281 15.1875 11.429688 15.222656 11.316406 15.265625 Z M 11.316406 15.265625 " fill-opacity="1" fill-rule="nonzero"/><path fill="#2c4539" d="M 5.039062 15.824219 C 4.6875 16.007812 4.734375 16.625 5.101562 16.738281 C 5.171875 16.761719 5.511719 16.792969 5.847656 16.808594 C 6.523438 16.839844 6.648438 16.8125 6.789062 16.613281 C 6.871094 16.496094 6.875 16.203125 6.796875 16.050781 C 6.707031 15.875 6.554688 15.832031 5.949219 15.792969 C 5.203125 15.75 5.164062 15.753906 5.039062 15.824219 Z M 5.039062 15.824219 " fill-opacity="1" fill-rule="nonzero"/><path fill="#2c4539" d="M 8.117188 15.839844 C 7.828125 15.859375 7.785156 15.875 7.667969 15.996094 C 7.558594 16.101562 7.539062 16.15625 7.539062 16.320312 C 7.539062 16.554688 7.628906 16.714844 7.804688 16.785156 C 7.992188 16.863281 9.179688 16.816406 9.355469 16.726562 C 9.671875 16.5625 9.691406 16.070312 9.394531 15.863281 C 9.296875 15.792969 8.765625 15.78125 8.117188 15.839844 Z M 8.117188 15.839844 " fill-opacity="1" fill-rule="nonzero"/></svg>